<svg xmlns="http://www.w3.org/2000/svg" width="720" height="480" viewBox="0 0 720 480" fill="none">
<defs><linearGradient id="bg" x2="720" y2="480" gradientUnits="userSpaceOnUse"><stop stop-color="#283b54"/><stop offset="1" stop-color="#172333"/></linearGradient><pattern id="dots" width="16" height="16" patternUnits="userSpaceOnUse"><circle cx="1" cy="1" r=".8" fill="#42617b" opacity=".3"/></pattern><filter id="shadow"><feDropShadow dy="14" stdDeviation="15" flood-opacity=".3"/></filter></defs>
<rect width="720" height="480" fill="url(#bg)"/><g filter="url(#shadow)"><rect x="53" y="73" width="614" height="357" rx="9" fill="#111b29" stroke="#3c5571"/><path d="M53 82a9 9 0 0 1 9-9h596a9 9 0 0 1 9 9v18H53Z" fill="#202d3c"/><circle cx="69" cy="87" r="3" fill="#bc818d"/><circle cx="81" cy="87" r="3" fill="#bdad7c"/><circle cx="93" cy="87" r="3" fill="#84ae9c"/>
<g font-family="Arial,sans-serif"><text x="74" y="130" font-size="21" font-weight="bold" fill="#e2e8ef">flow<tspan fill="#8daecb"> ai</tspan></text><text x="74" y="162" font-size="6" fill="#7c91aa" letter-spacing="1">WORKSPACE</text><rect x="65" y="176" width="100" height="25" rx="4" fill="#263c52"/><text x="77" y="192" fill="#a4c8ea" font-size="8">⌘ Workflows</text><text x="77" y="222" fill="#7d94ae" font-size="8">◷ Activity</text><text x="77" y="251" fill="#7d94ae" font-size="8">⊞ Integrations</text><text x="77" y="279" fill="#7d94ae" font-size="8">▤ Templates</text><path d="M177 101v329" stroke="#28374a"/>
<text x="197" y="128" font-size="11" fill="#d9e3ef">Your intelligent workspace</text><text x="197" y="146" font-size="7" fill="#7791ab">Connect ideas. Automate the everyday.</text><rect x="567" y="114" width="77" height="25" rx="4" fill="#82b2d6"/><text x="580" y="130" font-size="7" fill="#17283b">+ New workflow</text><path d="M177 162h490" stroke="#28374a"/>
<rect x="178" y="163" width="488" height="220" fill="url(#dots)"/><path d="M284 264h42q14 0 14-14v-18q0-14 14-14h30M468 218h32q14 0 14 14v45q0 14 14 14h18" stroke="#6d96bf" stroke-width="2" stroke-dasharray="5 4"/>
<rect x="204" y="238" width="102" height="67" rx="6" fill="#1d2f40" stroke="#3c6380"/><rect x="214" y="248" width="22" height="22" rx="5" fill="#334e64"/><text x="219" y="264" font-size="17" fill="#9bc8e9">ϟ</text><text x="215" y="285" font-size="8" fill="#c4d9e9">New message</text><text x="215" y="297" font-size="5" fill="#779bb5">TRIGGER</text><circle cx="306" cy="264" r="4" fill="#93c1e1"/>
<rect x="372" y="190" width="111" height="77" rx="6" fill="#29273f" stroke="#8374a9"/><rect x="383" y="201" width="22" height="22" rx="5" fill="#443653"/><text x="387" y="216" font-size="19" fill="#b5a1d4">✧</text><text x="384" y="240" font-size="8" fill="#d6c6e5">Understand with AI</text><text x="384" y="255" font-size="5" fill="#9f88b8">PROCESS &amp; SUMMARIZE</text><circle cx="372" cy="218" r="4" fill="#aa94ce"/><circle cx="483" cy="218" r="4" fill="#aa94ce"/>
<rect x="536" y="264" width="107" height="67" rx="6" fill="#1d353c" stroke="#4b868b"/><rect x="547" y="274" width="22" height="22" rx="5" fill="#2f5256"/><text x="552" y="290" font-size="15" fill="#8bc9c4">✓</text><text x="548" y="310" font-size="8" fill="#b2d9d5">Review &amp; approve</text><text x="548" y="323" font-size="5" fill="#73a29f">HUMAN CHECKPOINT</text><circle cx="536" cy="291" r="4" fill="#85c4c2"/>
<rect x="194" y="390" width="453" height="25" rx="4" fill="#192735"/><circle cx="206" cy="403" r="3" fill="#8bb7a6"/><text x="216" y="406" font-size="6" fill="#92a7bb">Workflow concept</text><text x="570" y="406" font-size="6" fill="#7690a7">3 connected steps</text></g></g></svg>
